<?xml version="1.0" encoding="UTF-8"?>
<svg id="Layer_2" data-name="Layer 2" xmlns="http://www.w3.org/2000/svg" viewBox="0 0 384.05 510.79">
  <defs>
    <style>
      .cls-1 {
        stroke-width: 0px;
      }
    </style>
  </defs>
  <g id="katman_1" data-name="katman 1">
    <g id="_87nRYF" data-name="87nRYF">
      <path class="cls-1" d="m80.92,244.93c-5.73-3.45-11.47-6.89-17.19-10.35-.8-.48-1.79-.92-1.84-2.05-.33-8.48-6.03-14.14-10.66-20.36-1.22-1.65-2.65-3.19-3.63-4.97-8-14.51-22.55-19.71-36.49-25.75-1.56-.68-3.62-1.14-5.04.38-1.4,1.5-.88,3.5-.12,5.06,3.95,8.11,7.69,16.37,13.63,23.32,1.33,1.56,3,2.91,4.04,4.64,7.88,13.15,20.6,18.08,34.72,20.85,5.12,1,8.61,5.21,13.25,7.5-3.95.3-7.73.83-11.56-1.07-11.24-5.59-22.43-11.5-35.59-10.86-8.73.42-16.06,4.17-22.64,9.59-1.23,1.02-2.35,2.52-1.55,4.33.79,1.8,2.56,1.82,4.23,1.89,1.77.08,3.68-.2,5.24.76,5.34,3.31,10.88,3.15,16.62,1.33,1.85-.59,3.78-.38,5.7-.08,9.73,1.55,19.03.9,28.67-2.26,6.65-2.18,14.42-.96,21.31,1.81,2.77,1.12,5.29,2.87,7.89,4.41,1.12.67,2.68,1.22,1.84,3.08-.72,1.59-1.73,2.81-3.73,2.61-3.3-.33-6.54-1.06-9.47-2.57-6.06-3.13-12.46-3.95-19.16-3.49-8.23.57-16.33,1.85-24.21,4.32-1.91.6-4.36,1.18-4.52,3.61-.14,2.12,2.05,2.99,3.51,4.21,3.75,3.14,7.97,4.65,12.87,4.47,2.21-.08,4.49.32,6.35,1.46,6.59,4.06,13.76,4.64,21.01,3.18,4.35-.87,4.31,2.85,6.1,4.6,1.75,1.71.04,3.23-.92,4.68-1.7,2.57-3.05,5.37-6.81,5.68-1.62.13-3.27,1.53-3.38,3.23-.28,4.34-2.37,8.39-1.93,12.78.11,1.11-.08,1.79-.76,2.55-1.55,1.73-1.49,3.87-.98,5.85.61,2.4,1.09,4.74,1.01,7.25-.09,2.57,1.67,3.93,3.95,4.62,4.92,1.5,9.92,2.03,15.02,1.08,1.46-.27,2.93-.42,5.55-.79-3.53,3.11-6.52,5.19-8.74,8.08-4.14,5.39-3.79,8.41,1.55,12.61.85.67,1.47,1.61,2.22,2.4,1.19,1.26,2.89,2.48,4.34,1.58,4.15-2.58,7.69-1.79,11.81.31,3.26,1.66,6.05-.66,7.98-3.42,3.14-4.49,6.12-9.09,9.27-13.57,1.08-1.54,2.12-3.21,4.18-4.26-.44,2.19-.91,4.15-1.22,6.14-.34,2.2.26,4.1,2.23,5.35,2.02,1.29,4.22,1.1,5.66-.57,5.42-6.27,11.11-5.98,18.49-2.99,7.3,2.96,14.97,5.25,22.42,7.97,3.52,1.28,7.3,2.45,10.86,1.75,7.58-1.5,11.64,3.46,15.98,7.86,2.74,2.78,8.77,17.91,9.52,23.11-3.8-4.09-9.21-5.39-10.17-11.22-.18-1.1-1.09-2.37-2.03-3.02-8.86-6.2-16.61-14.46-28.51-15.02-4.01-.19-7.94-.2-11.8.91-2.39.69-4.98,1.42-5.61,4.22-.66,2.9,1.61,4.47,3.58,5.95,11.72,8.79,24.92,13.39,39.58,13.55,8.27.09,13.46,5.41,16.49,11.63,3.11,6.38,4.03,13.91,2.9,21.3-.12.77.13,1.78-.75,2.19-.97.44-1.39-.58-2-1.06-2.78-2.23-5.38-4.73-8.35-6.64-5.26-3.38-10.92-4.46-16.7-1.15-3.06,1.75-4.93,4.43-4.68,8.09.23,3.35,2.36,5.38,5.27,6.77,5.13,2.46,10.6,2.53,16.1,2.33,1.3-.05,2.6-.18,4.86-.34-4.03,3.07-5.06,6.66-5.32,10.58-.24,3.61-2.82,5.83-5.02,8.24-2.62,2.87-4.87,5.94-5.78,9.8-.22.92-.57,2.03.63,2.49,1.27.49,1.67-.55,1.95-1.49,1.37-4.65,4.48-8.12,7.81-11.41,2.27-2.25,3.42-4.86,3.41-8.08,0-3.9,1.8-6.64,6.11-8.46-2.77,10.19-5.4,19.79-7.98,29.4-3.88,14.45-6.69,29.1-7.97,44.03-.05.55-.15,1.09-.15,1.64-.01,1.17-.54,2.86,1.11,3.05,1.71.2,1.55-1.55,1.68-2.72.53-4.49.92-9,1.55-13.47,1.73-12.37,4.68-24.48,7.87-36.53.16-.61.48-1.18,1.18-1.65-.91,7.17-1.96,14.33-2.68,21.52-.67,6.68-1.02,13.39-1.39,20.09-.06,1.15-.91,3.2,1.23,3.25,1.88.05,1.68-1.96,1.71-3.2.24-11.12,1.13-22.17,2.84-33.16.77-4.98,1.63-9.94,2.13-12.99,0,8.31.18,18.47-.05,28.62-.25,10.96-.79,21.91-1.95,32.82-.12,1.09-.14,2.19-.14,3.29,0,.93-.15,2.18,1.17,2.21,1.17.02,1.43-1.1,1.52-2.09.48-5.6,1.12-11.19,1.37-16.8.64-14.1,1.1-28.2,1.65-42.31.05-1.37.17-2.73.83-4.19.2,1.58.48,3.15.58,4.73,1.31,21.09,1.84,42.17.03,63.26-.06.68-.17,1.36-.18,2.05-.01,1.03.2,2.02,1.5,1.97,1-.04,1.3-.87,1.37-1.74.21-2.6.46-5.19.58-7.79,1.06-23.85.64-47.68-1.12-71.49-.16-2.17-.02-4.36.5-6.61,1.68,12.21,3.45,24.4,5,36.63,1.26,9.92,2.06,19.9,2.46,29.9.05,1.26-.59,3.34,1.24,3.39,2.27.06,1.5-2.1,1.47-3.48-.44-20.2-3.41-40.13-6.43-60.05-.59-3.91-1.22-7.82-1.85-11.85,5.2,2.31,7.71,6.88,6.82,13.04-.91,6.34.76,11.65,5.38,16.05.85.81,1.81,2.19,3.04.82.98-1.09-.19-2.01-.95-2.75-4.21-4.05-5.57-8.92-4.52-14.63.84-4.61-.77-8.62-4.22-12.63,5.97.36,11.23,1.06,16.39-.3,6.19-1.63,8.96-5.26,8.31-10.85-.47-4.02-2.61-6.56-6.69-7.2-8.2-1.3-15.31,1.64-22.48,6.1,3.52-8.67,9.93-14.24,18.29-14.71,4.71-.27,10.55-1.12,15.34,2.02,1.95,1.28,4.24.97,6.38.24,4.87-1.64,9.77-2.28,14.94-1.67,3.84.45,7.7-.19,11.08-2.32,3.24-2.05,3.24-4.59.11-6.78-10.78-7.52-22.63-8.79-35.11-5.85-4.86,1.14-8.5,4.3-11.58,8.12-1.64,2.04-3.36,3.92-6.79,4.06,5.45-6.09,10.96-11.56,15.63-17.68,3.93-5.13,9.1-7.62,14.82-9.7,1.79-.65,2.85-.19,4.37.9,4.41,3.18,8.99,6.18,13.72,8.86,3.14,1.78,6.71.98,10.07.23,3.5-.78,6.99-1.31,10.59-.88,2.21.26,4.65.18,6.4-1.04,4.57-3.19,9.74-3.24,14.92-3.66,4.25-.34,8.45-1.14,12.21-3.3,3.22-1.86,3.67-4.53.57-6.43-8.05-4.93-15.39-11.02-24.07-14.91-3.31-1.48-6.9-1.89-10.47-1.62-6.28.47-12.61.8-18.79,1.89-6.76,1.2-11.66,5.77-14.69,11.6-2.34,4.5-5.79,6.04-11,7.04,6.41-7.99,11.98-15.8,19.89-21.35,4.36-3.06,9.65-3.62,14.87-3.57,3.59.04,7.14.07,10.54-1.2,4.19-1.57,8.29-1.42,12.42.24,7.85,3.13,15.98,4.97,24.46,4.5,3.27-.18,7.68.46,8.58-3.82.89-4.2-3.33-5.11-6.24-6.38-3.51-1.54-6.1-4.12-8.63-6.84-2.21-2.38-4.74-4.55-8.07-4.38-8.58.44-17.31.27-25.37,4-4.54,2.1-8.54,4.72-10.81,9.58-1.56,3.32-5.33,1.78-8.06,3.05-.1-1.86,1.24-2.34,2.06-3.08,9.58-8.66,20.09-16.1,30.77-23.33,1.69-1.14,3.11-1.28,4.93-.37,2.39,1.19,5.02,1.69,7.56.57,7.1-3.12,14.7-4.32,22.19-5.94,8.37-1.81,14.87-6.06,20.28-12.91,8.89-11.26,14.55-23.43,14.18-38.02-.06-2.31.59-4.96-1.97-6.23-2.71-1.34-4.61.72-6.51,2.28-.32.26-.63.55-.88.87-4.69,6.08-10.35,9.71-18.47,10.5-7.28.71-13.25,5.09-16.72,11.99-2.71,5.38-7.09,9.33-11.12,13.63-5.29,5.66-11.28,10.93-12.94,19.1-.11.57-.72,1.15-1.25,1.5-7.82,5.03-15.35,10.46-23.22,16.81.76-3.99,1.51-6.82,4.51-8.91,5.26-3.67,9.4-8.79,15.09-11.99,1.21-.68,2.27-2.14,2.78-3.47,2.47-6.51,6.28-12.51,7.49-19.5.28-1.61.69-2.98,2.56-3.81,2.41-1.07,3.23-3.58,3.85-6.02,1.86-7.41.15-14.39-2.51-21.28-.53-1.36-1.61-2.54-1.44-5.13,2.75,4.21,5.21,7.67,7.32,11.32,2.14,3.69,5.32,5.52,9.33,6.36,2.46.51,3.26-1.01,3.6-2.88.62-3.42.3-6.81-.58-10.18-.34-1.28-1.29-2.45-.82-4.12,1.82.03,2.89,1.42,3.99,2.42,3.03,2.74,6.86,2.83,10.43,2.95,3.35.1,3.85-3.02,3.98-5.7.14-3.12-1.76-5.37-3.64-7.59-.94-1.11-1.78-2.32-3.1-4.08,3.9.72,6.88,2.2,10.16,2.38,5.97.32,7.66-1.76,5.85-7.43-.08-.26-.34-.55-.28-.76,2.51-8.51-4.7-10.63-9.47-14.24-3.05-2.31-6.82-3.36-11.1-5.3,5.17-1.96,8.39-5.56,12.45-7.96,1.29-.76,2.58-1.59,3.7-2.57,1.86-1.63,4.39-3.71,2.9-6.15-1.68-2.77-3.36-6.31-7.71-6.25-3.77.05-7.35,1.02-10.82,2.24-3.9,1.36-7.53.24-11.19-.65-2.18-.53-3.31-1.39-.98-3.72,3.76-3.77,7.01-8.01,11.15-11.47,3.46-2.89,2.13-4.7-1.45-7.26-7.11-5.1-12.55-1.68-18.37,1.94-2.07,1.29-4.16,2.62-7.35,3.33,1.3-2.67,2.44-4.87,3.45-7.13,2.16-4.88,4.41-9.74,4.95-15.16.33-3.35-.95-5.53-4.28-6.48-1.3-.37-2.62-.9-3.74-1.63-4.59-2.98-6.01-3-9.9.78-2.15,2.09-3.94,4.55-5.94,6.8-.45.51-1.11,1.89-1.75.79-1.41-2.43-3.24-2.93-5.85-2.58-1.6.22-1.28-.92-.63-1.85,4.04-5.83,9.84-8.96,16.54-10.63.82-.2,1.87.25,2.73.59,9.03,3.53,17.87,2.5,26.27-1.68,6.5-3.24,13.02-5.54,20.4-5.46,4.44.05,8.52-1.92,12.52-3.73,1.54-.7,2.96-1.67,2.89-3.61-.07-1.95-1.66-2.76-3.15-3.45-3.79-1.76-7.92-2.13-12-2.59-13.16-1.46-25.98-.64-38.09,5.5-4.87,2.47-9.32,5.25-12.02,10.17-.73,1.33-1.62,2.13-3.82,1.72,4.4-3.99,6.55-8.97,8.8-13.9.62-1.36,1.62-1.97,3.03-2.45,6.82-2.36,12.39-6.39,16.1-12.71,2.26-3.85,5.18-7.06,8.77-9.69,2.99-2.19,5.01-4.98,5.7-8.71,1.26-6.87,2.62-13.72,3.93-20.58.39-2.05.82-4.23-1.05-5.74-1.97-1.59-4.05-.44-5.71.64-4.93,3.21-9.84,6.47-14.5,10.04-3.93,3-6.19,7.27-7.41,12.05-1.8,7.07-4.11,13.91-8.09,20.12-1.81,2.83-2.86,6.19-2.57,9.4.55,6.17-2.71,10.73-5.57,15.45-1.82,3-4.51,5.4-7.66,8.02,1.06-4.63,1.9-8.36,5.22-11.7,6.24-6.28,6.72-14.4,4.82-22.68-.53-2.31-1.08-4.56-.56-6.89,1.22-5.43-.53-10.61-1.33-15.84-.51-3.37-2.92-3.99-5.18-1.43-6.81,7.71-10.86,16.43-9.31,27.04.63,4.34,1.47,8.64,1.45,13.06,0,1.47.21,3.15.93,4.39,5.65,9.77-.13,17.05-5.27,24.4-.86,1.23-2.07,3.54-3.49,2.93-1.62-.7-.9-3.14-.83-4.85.17-4.21.48-8.07,4.06-11.46,4.04-3.82,2.28-9.02.72-13.57-1.76-5.15-5.19-9.82-5.08-15.5.14-7.46-4.01-13.25-7.14-19.42-1.52-3-3.9-2.98-5.03.03-3.21,8.56-6.94,17.07-4.75,26.66.62,2.73,1.46,5.35,3.05,7.56,3.12,4.32,3.01,9.9,5.97,14.35,1.09,1.64-1.57,3.39-2.55,5.58-3.1-4.81-6.62-8.83-7.78-14.21-.44-2.05-1.22-4.25-3.49-4.67-2.6-.48-3.78,1.83-4.95,3.64-1.57,2.42-2.67,5.1-3.41,7.9-.55,2.09-1.44,2.88-3.29,1.09-.68-.66-1.47-1.25-2.29-1.73-3.59-2.1-5.95-1.02-6.06,3.07-.07,2.6-.77,2.63-2.5,1.31-2.44-1.85-5.1-3.23-8.11-3.81-1.83-.35-3.6-.09-4.78,1.59-1.14,1.63-1.14,3.4-.06,5.02,1.96,2.95,3.47,5.71,3.18,9.69-.25,3.38,2.92,6.21,4.4,9.47-4.32-2.21-8.14-5.97-12.72-6.34-7.04-.57-7.45-4.96-8.25-10.13-1.73-11.22-4.33-22.26-7.89-32.91.49-.74.9-.37,1.08-.11,4.71,6.81,10.91,6.11,17.5,3.52,1.72-.68,3.32-1.68,3.85-3.47.86-2.94,1.93-2.2,3.9-.89,6.27,4.2,15.53.79,17.36-6.38.52-2.06,1.19-1.94,2.72-1.31.98.4,2.33.9,3.14.54,4.99-2.24,8.44-6.45,11.73-10.52,2.25-2.78.63-6.38-.72-9.39-1-2.22-2.44-4.24-3.76-6.47.97-1.1,2.26-.5,3.37-.64,3.82-.48,7.07-1.56,7.05-6.32,0-.27.07-.55.14-.81,2.42-7.96,2.15-8.64-4.96-13.38-5.17-3.45-10.93-5.58-17.63-7.82,4.13-.61,7.2.52,10.31.87,6.33.71,6.99.36,9.37-5.62.24-.6.77-1.11,1.24-1.59,2.22-2.26,1.68-4.4-.25-6.49-3.29-3.56-7.75-4.84-12.21-5.27-17.07-1.61-34.2-3.03-50.7,3.57-2.42.97-3.32.15-4.36-1.89-3.86-7.53-9.49-13.42-17.13-17.16-11.43-5.59-21.45-1.24-25.29,10.86-2.04,6.43-2.23,12.96-.6,19.47.65,2.59.29,3.77-2.68,3.84-3.48.08-6.71,1.39-9.68,3.17-9.49,5.71-17.86,12.7-24.27,21.84-2,2.85-3.47,5.92-3.52,9.5-.05,4.04,1.36,5.6,5.38,5.24,2.43-.22,2.58.29,1.74,2.34-1.4,3.43-2.43,6.98-2.84,10.69-.34,3.07,0,5.51,3.36,7.06,3.11,1.44,3.29,3.77,1.02,5.57-12.94,10.29-15.35,19.7-9.06,35.46q2.27,5.7,2.05,11.15c-7.95-8.9-16.09-16.74-20.71-27.34-.46-1.05-.39-2.01-.1-3.16,3.35-13.12,1.42-24.63-9.85-33.59-4.61-3.66-9.16-7.41-13.95-10.83-1.21-.87-2.71-1.68-4.18-.62-1.63,1.18-1.43,2.97-.69,4.48,3.22,6.51,3.64,13.72,5.39,20.59,2.5,9.8,7.66,17.58,17.62,21.18,4.47,1.61,3.35,6.57,5.9,9.44-4.41-3.07-9.35-4.62-13.39-8.81-6.49-6.72-12.34-14.8-22.16-17.59-3.41-.97-6.8-.96-10.15-.1-6.37,1.64-12.77,3.1-19.25,4.23-1.46.25-2.95.74-4.25,1.45-3.16,1.73-3.14,4.51,0,6.23,1.06.59,2.27,1.04,3.46,1.25,4.98.87,9.28,3.19,13.37,6.02,5.9,4.09,12.2,6.08,19.41,3.98,2.38-.69,4.99-.7,7.34.04,3.99,1.24,7.84,2.59,11.83.07.78-.49,1.58.06,2.3.45,8.13,4.36,15.85,9.29,22.19,16.1.34.36.55.83,1.32,2.03-5.42-1.7-10.16-2.26-14.89-3.73-15.29-4.76-33.72-4-40.26,15.88-1.51,4.58-3.87,8.78-5.51,13.27-1.68,4.63-.6,5.92,4.26,6.05,3.61.09,6.37-1.49,8.66-3.99,2.93-3.19,6.67-4.08,10.68-5.34,5.29-1.65,9.14-1.31,14.11,1.3,4.27,2.24,9.9,1.74,14.78-.4,1.03-.45,2.1-1.05,3.14-.73,4.5,1.4,8.62,1.42,12.03-2.46.5-.57,1.32-.25,1.93.05,4.74,2.32,9.69,4.02,12.19,9.6,3.51,7.85,7.79,15.35,11.36,23.35-4.59-1.82-8.85-4.6-10.88-8.76-3.48-7.1-9.03-10.51-16.3-11.62-10.64-1.62-21.04-.32-31.07,3.63-1.01.4-2,.93-2.9,1.54-2.2,1.5-2.4,3.49.31,4.06,5.97,1.25,9.96,5.39,14.63,8.68,7.38,5.19,15.64,8.49,24.72,9.34,5.46.51,10.74-.21,15.27-3.53,1.76-1.29,3.05-1.07,4.82-.2,4.6,2.26,6.58,6.38,8.24,10.82.58,1.55.2,2.46-1.55,2.36-2.35-.14-4.56-.33-6.35,1.86-1.14,1.4-1.88-.38-2.53-.99-2.67-2.53-5.35-2.83-8.54-.86-2.46,1.53-5.94,1.41-7.4,4.61-.09.19-.79.3-1.09.17-4.83-2.05-7.74,2.64-11.78,3.36-.36.06-.9.44-.94.73-.76,6.46-7.81,7.19-10.66,11.72-.29.46-1.01.96-.92,1.29,1.22,4.95-3.92,6.07-5.56,9.28-.39.76-1.02,1.91-2.18,1.2-.93-.57-.88-1.66-.43-2.59.96-2.01.84-4.36,1.61-6.32,3.15-8.04,1.19-16.61,2.93-24.78.32-1.52.16-3.43-.48-4.83-3.92-8.63-10.34-15.12-18.48-19.73-3.73-2.11-6.2-.22-5.73,4.12.79,7.24,2.73,14.26,5.65,20.93,1.06,2.41,1.45,4.52.71,7.07-2.69,9.33.64,18.8,8.54,24.17,1.74,1.18,2.65,2.68,3.32,4.49.41,1.1,1.52,2.4.31,3.35-1.19.93-2.71.83-4.24.05-5.17-2.63-7.8-7.55-10.97-11.97-2.1-2.93-2.78-5.87-2.73-9.94.09-8.27-.24-17.14-7.19-23.63-3.68-3.43-5.94-7.81-7.86-12.4-2.24-5.33-5.94-9.51-10.79-12.62-1.34-.86-2.95-1.92-4.49-.43-1.31,1.26-.76,2.79-.09,4.19,1.2,2.5,1.85,5.15,2.29,7.87,1.68,10.42,7.31,19.38,10.78,29.13,1.4,3.95,4.75,6.97,8.24,8.96,5.62,3.2,7.99,8.7,10.79,14.2Zm87.36-28.94c-5.18-2.52-4.74-6.66-3.4-11.12.4-1.32.87-2.08,2.45-2.18,9.72-.58,15.42-6.15,18.4-15.05,1.13-3.38,2.24-6.9,4.58-9.6,6.61-7.64,6.54-17.11,7.59-26.28.14-1.2.12-2.6-1.12-3.33-1.46-.86-2.62.16-3.7.98-2.5,1.89-4.7,4.19-7.82,5.2-5.28,1.71-9.55,4.66-12.03,9.88-.56,1.17-1.63,2.27-2.74,2.97-4.04,2.52-5.84,6.34-6.91,10.75-1.47,6.09-1.71,12.27-.71,18.37.67,4.06-.88,7.39-1.93,11.75-2.6-5.34-4.85-9.98-7.11-14.61-2.97-6.08-2.01-10.74,3.01-15.48.96-.91,1.62-2.2,2.22-3.41,1.18-2.38,2.59-4.59,4.83-6.02,5.92-3.78,8.25-9.59,9.54-16.11,1.72-8.7,1.08-17.82,4.74-26.18.31-.71.18-1.63.16-2.45-.03-1.8,0-3.79-2.1-4.47-2.08-.67-3.27.9-4.35,2.35-1.97,2.62-3.36,6.42-5.98,7.68-7.7,3.71-10.34,10.79-13.95,17.54-5.08,9.51-4.79,19.27-2.1,29.12.77,2.81.96,5.09-.33,8.67-1.32-2.56-2.23-4.32-3.13-6.09-3.54-6.96-6.66-14.18-11.12-20.59-2.73-3.91-3.89-8.02-4.37-12.58-.27-2.57.2-4.32,2.6-5.78,4.04-2.46,8.02-5.7,8.92-10.36,1.47-7.64,6.2-13.98,7.55-21.56.16-.92.17-2.01,1.46-2.15,1.08-.12,2.35-.43,2.9.85,1.18,2.72,3.83,3.86,5.88,5.62,3.96,3.38,5.35,3.28,9.08-.22.78-.73,1.41-1.99,2.41-.28,1.6,2.73,4.68,1.82,6.97,2.87,3.23,1.49,5.18-.21,6.85-2.68.34-.5.87-.74,1.4-.39,2.62,1.68,5.37.14,8.05.32,5.8.37,7.88-1.12,9.51-6.76.87-3,1.31-6.13,2.12-10.08,5.33,13.9,7.99,27.46,10.4,41.07.41,2.29,1.57,4.7-1,6.77-1.04.84-.19,2.28.37,3.41,2.14,4.28,3.71,8.72,4.44,13.5.41,2.66-.09,3.25-2.87,2.98-4.47-.44-9.04-.92-13.49.18-3.6.89-5.07,3.4-3.64,5.93,2.5,4.4,5.12,8.54,10.95,9.2,2.53.29,5.69,1.06,2.95,5.01-.45.65.03,1.89-.11,2.82-.59,4.01.95,9.05-5.55,10.06-2.29.35-2.99,2.6-2.18,4.95.39,1.16,1.16,2.38,1.04,3.48-.6,5.12,2.64,6.78,6.67,7.71,2.13.49,4.31.82,6.49,1.03,1.56.15,2.14.88,2.14,2.36.03,11.51.82,23.19-1.46,34.44-2.33,11.5-6.19,22.71-8.13,34.35-.13.76-.27,2.07-1.29,1.55-2.53-1.28-4.88-2.71-6.37-5.49-1.35-2.51.33-3.39,1.47-4.82,2.38-2.98,1.63-5.39-1.98-6.54-2.01-.65-4.04-.54-6.09-.11-3.38.71-6.54,1.99-9.64,3.47-.84.4-1.99,1.68-2.78.13-.68-1.35.74-1.84,1.59-2.44,2.98-2.11,6.4-3.2,9.93-3.69,7.84-1.09,13.02-6.09,17.62-11.82,3.29-4.1,2.1-7-2.96-8.42-2.83-.79-5.79-.48-9.21-.68,1.58-1.82,2.79-2.94,3.66-4.28.89-1.36,1.67-2.86,2.13-4.41,2.06-6.93-1.99-12.13-9-11.44-1.97.19-2.58-.16-2.8-2.2-.71-6.63-1.15-6.81-7.45-6.45-2.82.16-5.55,0-7.67-2.74-1.73-2.23-4.17-3.94-6.43-5.71-2.66-2.08-4.93-1.54-6.25,1.55-.85,1.98-1.25,4.16-1.84,6.18Zm100.92,125.92c1.8-6.87,2.3-13.84,5.59-20.43,5.29-10.58,5.79-21.77-1.9-31.81-2.48-3.23-5.33-6.22-7.74-9.56-5.3-7.36-12.3-11.57-21.6-11.38-1.5.03-3.01-.17-4.52-.22-1.28-.04-2.21-.3-1.61-1.91,3.13-8.46,6.93-16.57,11.97-24.52,2.38,6.88,5.24,6.63,16.06-1.03-1.07,5.05-2.06,9.84-1.16,14.76.72,3.93,2.22,6.83,6.99,6.09.96-.15,1.83.17,2.71.71,4.64,2.83,8.05,1.98,10.91-2.61,1.77-2.84,2.34-6.14,3.48-9.28.38.98.48,1.91.59,2.84.49,4.14.12,8.45,5.78,10.02,2.28.63,3.45,3.37.65,5.84-1.72,1.52-3.21,3.4-4.44,5.35-6.57,10.39-6.02,21.55-2.27,32.48,2.45,7.13.23,13.18-3.69,17.91-4.82,5.82-10.51,11.05-15.8,16.75Zm50.17-41.51c2.48-5.7,6.44-10.22,10.67-14.49,4.15-4.19,8.43-8.28,11.28-13.53,4.64-8.54,12.05-12.43,21.47-12.85,3.24-.15,5.75-1.43,7.91-3.76,2.42-2.61,4.92-5.15,7.46-7.65.62-.61,1.45-1.64,2.41-.84.5.42.66,1.49.62,2.24-.14,2.87-.32,5.75-.67,8.6-.68,5.51-.66,11.47-7.57,13.53-.48.14-.94.63-1.23,1.07-5.48,8.42-15.02,13.12-20.03,22-1.78,3.16-4.81,4.61-8.43,5.19-5.27.84-10.5,1.96-15.39,4.27-1.62.77-3.36,1.23-5.18.63-.62-.2-1.52-.24-1.44-1.13.04-.41.6-.86,1.03-1.12,2.66-1.69,5.37-3.29,8.02-4.99,5.66-3.63,10.98-7.72,15.79-12.45.77-.76,1.82-1.59.78-2.75-1.13-1.25-1.93-.02-2.71.65-.83.71-1.61,1.49-2.42,2.23-6.71,6.09-14.26,10.97-22.37,15.15Zm-48.82-223.22c.24,2.05-.98,3.3-2.35,4.52-1.63,1.45-3.42,2.8-4.74,4.5-2.21,2.84-4.41,2.74-7.01.72-5.54-4.3-10.65-9.04-14.87-14.67-9.53-12.69-18.41-25.94-30.85-36.15-.61-.5-1.43-1-.88-1.99.55-.99,1.25-1.87,2.58-1.57,1.6.36,3.22.67,4.78,1.17,11.75,3.75,22.21,9.93,32.02,17.28,6.16,4.61,11.88,9.71,16.55,15.87,2.33,3.07,4.25,6.38,4.76,10.32Zm-38.5,15.88c.04,2.56-.06,5.06-2.44,6.64-5.52,3.68-10.48,3.05-14.9-2-5.11-5.83-8.64-12.63-11.62-19.73-4.15-9.9-6.78-20.22-8.17-30.86-.25-1.93-.17-3.55,2.07-4.25,1.48-.46,2.75-1.7,4.41.02,7.22,7.48,15.07,14.37,20.99,23.03,5.61,8.2,8.62,17.32,9.65,27.13Zm-.96,195.97c3.13,5.37,8.72,7.71,11.35,12.56,3.38,6.24,8.49,10.64,13.99,14.79,2.4,1.81,4.66,3.82,7,5.71,4.42,3.57,5.74,7.92,4.05,13.46-1,3.27-1.81,6.59-3.22,9.72-4.77,10.52-13.3,18.35-19.79,27.64-.08.12-.48.01-1.01.01.45-7.17-2.04-14.5,2.3-21.4,1.47-2.35,1.83-5.42,2.56-8.2,1.81-6.95.57-13.32-3.96-18.95-2.49-3.1-5.5-5.85-7.54-9.21-4.73-7.77-10.34-15.52-5.72-26.13Zm-51.39-226.1c1.36,16.53-4.77,31.19-11.47,45.69-.28.61-.73,1.16-1.14,1.7-1.2,1.58-2.39,1.71-4.18.57-5.28-3.34-7.7-7.84-6.72-14.14,2.65-17.1,5.62-34.1,14.69-49.28.81-1.36,1.22-3.16,3.59-2.09,1.99.89,4.68.5,4.65,4-.04,4.51.37,9.03.58,13.55Zm61.52,290.98c-.92-2.75-1.69-5.3-2.61-7.79-2.03-5.51-3.72-11.19-7.19-16.06-.71-.99-1.66-2.26-3-1.45-1.65,1-.27,2.15.36,3.07,4.41,6.43,6.66,13.77,8.98,21.08.27.87,1.05,1.94.07,2.61-.46.31-1.54-.18-2.29-.46-6.09-2.26-10.79-6.25-14.83-11.3-2.15-2.68-2.94-4.9-1.12-8.07,1.71-2.99,2.69-6.36,2.1-9.89-.91-5.45-.76-10.92-.57-16.4.11-3.02,0-6.06-1.16-8.9-1.17-2.85-3.15-3.29-5.52-1.42-2.64,2.08-3.51,5.11-4.17,8.25-.44,2.09-.36,4.4-2.38,7.17.16-3.95-3.09-6.47-1.44-9.21,3.27-5.41,3.6-11.04,2.29-17.91,6.23,4.5,11.49,8.79,16.56,13.33,1.45,1.3,2.69,2.86,3.23,4.7,2.25,7.6,7.13,13.39,12.23,19.22,7.27,8.31,7.32,19.83.46,29.44Zm-58.34-285.88c-.21-4.78-.46-9.56-.64-14.34-.26-6.83-.2-6.67,6.38-8.24,2.85-.68,3.53.11,3.77,2.81.94,10.42,3.14,20.67,7.77,30.02,3.66,7.39,3.5,14.76,2.45,22.36-1.01,7.29-1.97,7.95-9.17,8.31-.68.03-1.37.14-2.02.32-2.13.58-3.48-.33-4.16-2.26-.64-1.8-1.25-3.62-1.64-5.48-2.3-11.04-2.31-22.28-2.74-33.49Zm87.83,287.93c4.65-7.15,9.24-12.32,17.66-12.41,3.94-.04,7.89-.86,11.81-1.45,3.17-.47,6.31-.53,9.36.48,8.94,2.96,15.89,9.22,23.67,14.4-5.58-.63-10.87,1.42-16.3.93-4.23-.38-8.22.62-10.84,3.81-4.04,4.91-9.54,5.84-15.14,6.88-2.29.43-4.84,1-6.84-.3-3.89-2.53-7.64-5.22-11.84-7.28-2-.98-1.29-2.05.58-2.49,3.07-.71,6.13-1.46,9.21-2.1,4.17-.86,8.4-1.18,12.65-1.34,1.07-.04,2.54.07,2.45-1.45-.09-1.4-1.51-1.32-2.61-1.34-.68,0-1.37.05-2.05.08-6.99.28-13.82,1.67-21.76,3.58Zm.62-34.48c-1.16-11.54-5.26-20.97-12.1-29.15-1.1-1.31-2.33-4.33-4.18-2.86-2.15,1.7.85,3.17,1.87,4.46,4.87,6.14,8.63,12.77,10.44,21.14-.89-.69-1.24-.9-1.51-1.18-8.42-8.9-15.59-19.1-26.72-25.15-2.94-1.6-5.36-4.02-6.28-7.33-.86-3.08-2.16-5.9-3.74-8.63-.4-.69-1.2-1.41-.67-2.2.51-.76,1.5-.35,2.29-.28,4.77.46,9.53,1.02,14.31,1.39,6.94.54,12.65,3.33,16.89,8.91,2.07,2.72,3.82,5.73,6.17,8.17,8.18,8.46,9.88,21.47,3.23,32.72Zm46.16-185.74c1.97.9,3.42,3.27,6.02,3.57,3.29.38,3.9,2.3,3.18,5.27-1.5,6.18-4.06,11.92-7.15,17.42-5.09,9.06-11.68,16.81-19.93,23.23-3.81,2.97-5.64-1.04-8.25-1.92-2.48-.84-.48-2.86.03-4.12,2.85-7.12,5.76-14.21,8.89-21.21,3.09-6.91,7.09-13.29,12.23-18.89,1.28-1.4,2.62-2.81,4.98-3.34Zm-236.27,187.98c-.82,0-1.64.04-2.46,0-7.37-.37-7.78-.72-9.21-7.78-.11-.53-.35-1.04-.51-1.56-1.36-4.39-.8-5.57,3.7-6.79,8.91-2.41,17.97-3.72,27.22-2.87,9.42.86,18.85,1.82,28.2-.36,2.25-.52,2.47,1,3.12,2.3,1.01,2.04-.74,2.31-1.9,2.8-3.9,1.67-7.8,3.36-11.77,4.85-11.8,4.42-23.59,8.87-36.39,9.41Zm-27.68-92.3c-1.06,0-1.49.11-1.84-.02-9.76-3.7-19.59-7.3-25.02-17.31-.71-1.3-1.72-2.5-2.8-3.53-7-6.71-10.23-15.76-14.9-23.9-.42-.72-1.35-1.69-.46-2.57.84-.83,1.83-.09,2.65.31,6.04,2.9,12.07,5.81,18.08,8.77,5.27,2.59,9.61,6.28,12.81,11.22,3.28,5.06,7.03,9.75,10.74,14.5,2.64,3.38,5.28,6.88,5.96,11.98-1.27-.77-2.09-1.19-2.81-1.72-5.19-3.83-9.81-8.28-14.18-13.03-1.17-1.27-2.53-4.12-4.34-2.36-1.78,1.73,1.11,3.27,2.27,4.44,4.3,4.37,8.84,8.49,13.83,13.21Zm311.33-2.43c-2.6-.13-5.07-.53-7.31-1.55-11.93-5.5-24.5-8.49-37.5-9.95-4.29-.48-8.06-2.37-11.74-4.61-2.39-1.45-1.25-3.14-1.05-4.96.25-2.28,1.74-2,3.27-2,8.62-.02,17.24.08,25.85-.15,9.42-.25,17.78,2.51,25.29,8.05,3.16,2.34,6.84,4.41,4.9,9.47-.24.63.13,1.66.52,2.32,1.74,2.95-.17,3.22-2.23,3.36Zm-58.75,30.17c2.28,5.66,5.39,8.98,10.05,10.62,2.34.82,2.59,2.35,2.32,4.51-.69,5.39-3.79,10-5.07,15.07-2.48,9.87-12.27,11.94-17.71,18.56,2.13-8.26,5.43-15.86,9.22-23.26.45-.89,1.55-2.04.22-2.88-1.52-.96-2.15.46-2.73,1.54-3.23,6.04-5.91,12.32-8.3,18.73-.58,1.56-.85,3.32-2.52,4.98-4.47-13.33-3.57-25.14,5.76-35.67,3.13-3.54,7.27-6.31,8.77-12.2Zm-83.53,91.1c4.34,3.91,8.76,6.36,13.58,7.92,2.75.89,3.93,2.36,4.14,5.24.28,3.7.49,7.37,0,11.07-.23,1.77-.42,3.47-1.83,4.87-6.91,6.85-13.27,14.18-18.82,22.19-.08.11-.49-.01-.94-.03-.8-17.02,1.46-33.78,3.85-51.26Zm48.08-169.15c.72,2.15-1.92,2.5-3.47,3.59-1.25.87-1.62-.18-1.99-1.11-5.61-13.99-14.8-25.8-23.22-38.08-1.38-2.02-3.61-4.12-3.35-6.43.46-4.05-.7-7.16-3.14-10.12-.61-.74-.99-1.74-.16-2.59.78-.8,1.8-.55,2.71-.26,3.05.98,5.64,2.77,7.99,4.89,14.68,13.19,21.28,30.41,24.63,50.12Zm52.35-75.84c3.3-4.26,6.53-8.49,9.18-13.12.63-1.1,2.63-2.52.53-3.71-1.61-.91-2.28,1.04-2.92,2.14-2.62,4.49-5.74,8.58-9.72,12.73-.28-2.57.46-4.38,1.41-5.92,4.44-7.21,7-15.11,9.19-23.2.98-3.62,3.01-6.85,6.03-9.13,4.48-3.37,9.14-6.5,13.75-9.69.76-.53,1.7-1.27,2.63-.67.96.62.5,1.77.33,2.66-1.4,7.12-2.87,14.23-4.29,21.35-.39,1.97-1.34,3.51-2.99,4.72-4.48,3.27-8.04,7.34-10.97,12.08-2.83,4.58-6.53,8.34-12.16,9.77Zm-59.72,90.69c-12.17-2.25-23.52-6.3-34.18-12.39-5.33-3.05-10.51-6.5-16.49-8.24-3.52-1.02-6.01-2.5-7.93-6.11-1.76-3.31-.54-3.51,1.85-3.68,7.32-.52,14.55.04,21.34,3.03,12.4,5.48,23.46,12.97,32.92,22.72,1.21,1.24,2.57,2.42,2.5,4.66Zm-89.49,14.26c.26.1.52.18.77.28,5.64,2.34,9.72,9.37,9.11,15.65-.75,7.72-3.13,14.99-6.19,22.04-3.28,7.57-7.27,14.73-13.08,20.71-.64.66-1.28,1.76-2.35,1.06-.86-.56-.19-1.47.12-2.2,2.67-6.41,3.92-13.2,3.75-20.04-.3-12.13,3.27-23.47,6.15-34.97.25-.99.38-2.22,1.72-2.54Zm92.17-9.68c-3.52,1.69-6.42,2.69-8.88,4.34-6.79,4.56-14.37,5.84-22.29,6.05-5.08.14-10.14-.22-15.18-.79-7.11-.81-6.75-1.06-9.17-7.63-1.5-4.09.43-4.48,3.21-4.93,9.79-1.57,19.62-1.82,29.5-1.1,7.51.55,15,1.11,22.81,4.05Zm-176.06,64.33c.85.2,2.51.39,4.02.98,4.07,1.59,8.13,3.21,12.09,5.06,8.05,3.76,14.49,9.71,20.85,15.72.99.93,2.14,2.06,1.49,3.54-.83,1.87-2.46.62-3.58.37-8.13-1.8-16.26-3.65-24.34-5.7-5.3-1.34-10.54-2.98-15.12-6.11-2.82-1.93-5.55-3.92-1.78-7.55.69-.67.79-1.99,1.09-3.04.66-2.29,2.14-3.42,5.29-3.28ZM243.45,97.79c-4.22-.8-6.73-3.01-8.08-6.38-.91-2.27-1.5-4.69-2-7.1-2.01-9.6-6.46-17.95-12.66-25.47-4.62-5.62-9.97-10.52-14.99-15.75-.89-.93-3.54-1.6-1.76-3.7,1.66-1.97,3.53-2.52,5.85-.37,3.31,3.07,6.73,6,9.71,9.42,10.61,12.17,18.99,26.14,30.48,37.61,1.83,1.83,3.45,4.36,1.71,7.02-1.99,3.04-5.85,3.05-8.25,4.72Zm-140.99,47.92c-5.36,7.25-10.75,12.77-17.39,16.99-1.11.7-2.6,1.27-3.86,1.17-4.76-.38-8.06,2.11-11.11,5.19-1.66,1.68-3.4,3.19-5.81,3.64-.93.17-1.98.45-2.73-.33-.84-.87-.13-1.82.22-2.65,1.53-3.65,3.38-7.2,4.63-10.94,5.18-15.5,18.91-22.05,34.63-16.35-.78.96-1.95.83-2.98,1.08-5.48,1.31-10.84,2.96-15.65,5.96-1.24.77-3.72,1.56-2.49,3.48,1.1,1.72,2.64-.22,3.8-.93,5.44-3.33,11.33-5.25,18.74-6.3Zm92.14,5.79c.32,1.02.55,1.39.52,1.75-.89,11.97-4.38,22.87-13.63,31.1-3.15,2.8-6.65,5.13-8.76,8.99-.68,1.25-2.25,2.12-4.32,2.52,1.49-4.1,3.52-7.32,5.37-10.64.55-.99,1.72-2.29.19-3.21-1.54-.92-2.12.67-2.69,1.69-1.76,3.14-3.46,6.32-5.42,9.91-1.18-5.07-.79-11.28.84-16.26.95-2.9,13.25-17.29,16.04-18.55,4.17-1.89,8.71-3.09,11.86-7.31Zm-41.7,101.28c0,4.25.04,8.49-.03,12.74-.02,1.01.68,2.57-.57,2.94-1.62.48-1.76-1.37-2.24-2.37-6.01-12.51-10.54-25.55-13.57-39.1-.59-2.64-1.67-5.36-.86-8.08.79-2.63,4.04-1.21,5.52-2.91.09-.1.22-.16.32-.25,1.92-1.63,3.52-.89,4.99.69,2.5,2.69,3.75,6.02,4.72,9.47,2.48,8.83,2.8,17.81,1.7,26.88Zm130-42.38c4.56,12.47,3.64,24.17,2.78,35.84-.29,3.96-.95,7.9-2.84,11.47-2.11,3.98-3.89,4.43-7.6,2.04-1.23-.8-2.49-1.08-3.9-.76-2.71.62-3.72-.87-4.12-3.23-1.06-6.15.02-11.96,2.61-17.56.54-1.16,1.26-2.09,2.48-2.59,4.49-1.82,6.43-5.67,7.91-9.91,1.59-4.54,1.72-9.35,2.67-15.3Zm-8.31-49.85c-2.29-9.3,2.26-19.36,7.67-29.21.56-1.01.74-2.78,2.19-2.58,1.34.18,1.35,1.86,1.59,3,1.98,9.31,2.16,18.74,1.71,28.19-.31,6.44-1.37,12.76-3.18,18.97-1.16,3.97-4.22,1.93-6.47,2.27-2.36.36-2.05-1.68-2.16-3.08-.43-5.04-.78-10.09-1.35-17.56ZM220.82,31.54c11.56.81,22.71,3.52,33.66,7.04,6.39,2.06,12.76,4.23,18.36,8.1,5.03,3.47,5.09,3.7,3.09,9.29-.22.63-.32,1.34-.3,2.01.07,2.12-1.2,2.96-3.02,3.17-4.11.49-7.91-.04-10.96-3.26-1.69-1.79-3.5-3.48-5.36-5.09-10.58-9.12-22.54-15.91-35.47-21.26Zm75.86,184.67c11.25,9.93,22.14,20.07,27.02,34.73,1.62,4.87,1.87,9.95.75,15-.35,1.57-.48,3.61-2.01,4.32-1.58.74-1.6-1.87-2.97-2.2-.65-.16-1.24-.57-1.88-.81-7.49-2.74-10.23-9.03-9.77-15.97.7-10.52-2.42-19.66-7.35-28.52-1.22-2.2-2.53-4.37-3.79-6.55Zm-122.25-93.38c1.48,1.17,1.18,2.05.92,2.76-3.12,8.59-3.37,17.67-4.61,26.59-.59,4.26-2.24,8.24-5.32,11.35-3.54,3.57-8.21,6.1-9.85,11.44-.52-5.08,1.14-9.37,2.85-13.7.66-1.67,3.34-4.19.98-5.2-2.53-1.08-2.7,2.65-3.65,4.37-1.9,3.44-2.58,7.38-3.81,11.1-1.81-12.65-1.46-14.7,4.33-26.09,1.59-3.13,1.95-7.21,5.22-9.11,5.6-3.24,10-7.49,12.92-13.5Zm42.51-95.03c2.99-1.93,5.5-2.46,7.9-3.22,14.17-4.45,28.49-6.83,43.22-2.99,6.23,1.63,6.14,2.76,5.13,8.53-.87,5.02-3.63,4.2-6.68,3.84-8.97-1.06-17.93-2.24-26.89-3.36-7.25-.91-14.5-1.79-22.68-2.8Zm-118.97,154.26c7.75-1.79,15.25-3.95,23.13-3.21,10.5.99,15.59,4.81,17.93,13.46-3.2-.63-6.39-1.36-9.61-1.84-1.25-.19-3.27-.58-3.46,1.15-.2,1.89,1.91,1.54,3.14,1.71,4.98.69,9.79,1.85,14.5,4.07-7.75,6.06-22.56,4.4-28.89-3.34-4.49-5.49-8.89-10.84-16.74-11.99Zm149.96,56.44c-4.41,7.66-8.6,14.33-11.02,21.72-1.79,5.47-4.26,8.33-10.45,7.8-2.16-.19-1.94-.68-2.01-2.08-.98-18.78,6.32-34.98,15.64-50.56,1.22-2.04,2.9-2.88,5.67-2.2-3.26,3.46-6.08,6.79-8.33,10.56-2.86,4.78-1.91,12.12,2.08,15.72,1.12,1.01,2.47,1.13,3.85.71,1.16-.35,2.28-.82,4.56-1.65Zm31.98-27.16c-.62,3.64-1.15,7.29-1.88,10.9-1.11,5.52-3.6,9.99-9.41,11.88-1.99.65-3.44,2.19-4.81,3.73-1.73,1.95-3.61,3.74-5.82,5.15-1.42.91-3.07,1.72-4.59.69-1.64-1.11-.38-2.79-.11-4.14,2.6-12.75,8.76-23.44,18.65-31.95,1.27-1.09,2.13-2.98,4.41-1.56,2.01,1.26,4.25,2.21,3.56,5.28ZM90.04,123.14c-1.13,1.45-2.24,1.22-3.24.78-5.27-2.33-10.64-1.98-16.09-.8-3.95.86-7.7-.07-10.99-2.21-5.77-3.73-11.57-7.29-18.45-8.63-.88-.17-2.19-.39-2.01-1.56.16-1.09,1.49-.99,2.41-1.17,5.23-.99,10.56-1.53,15.62-3.32,13.19-4.67,22.65,1.14,29.32,11.79-3.98-1.6-7.74-3.16-11.55-4.59-1.18-.44-2.91-1.34-3.46.57-.48,1.67,1.4,1.7,2.46,2.07,5.49,1.93,10.71,4.4,16,7.06Zm-3.07,138.32c-2.23,1.93-4.09,1.92-6.02,1.69-3.39-.41-6.78-.83-10.18-1.19-1.01-.1-2.41-.5-2.5,1.18-.07,1.24,1.1,1.48,2.02,1.61,2.71.38,5.44.57,8.14,1.03,1.26.22,3.42-.66,3.38,1.8-.04,2.12-1.47,3.12-3.51,3.25-2.46.16-4.96.04-7.36.49-5.06.95-9.73.36-14.22-2.29-2.98-1.76-6.35-2.78-9.8-2.63-4.42.19-7.98-1.4-11.22-4.14-.5-.42-1.39-.53-1.35-1.36.05-1.02,1.03-1.2,1.76-1.38,3.59-.86,7.16-1.83,10.8-2.4,9.16-1.43,18.37-3.57,27.47.27,3.88,1.64,7.75,3.29,12.58,4.05Zm218.18-15.38c-.21,5.05-1.11,9.75-2.6,14.3-1.33,4.05-2.06,4.14-5.17,1.2-.39-.37-.83-.88-1.3-.96-3.83-.59-4.26-3.46-4.18-6.43.36-13.33-1.09-26.44-4.56-39.33-.25-.91-1.07-2.3.23-2.88,1-.44,2.13.36,2.83,1.23,7.78,9.75,14.06,20.18,14.76,32.86Zm12.58-122.43c1.98-3.1,4.33-4.48,6.73-5.79,8.6-4.69,17.88-6.85,27.6-7.15,6.87-.21,13.7.39,20.35,2.26,1.1.31,2.9.31,2.89,1.73,0,1.35-1.79,1.39-2.87,1.85-3.55,1.52-7.23,2.62-11.13,2.64-6.19.04-11.81,1.99-17.34,4.55-3.1,1.43-6.31,2.71-9.58,3.67-4.74,1.39-9.53,1.54-14.75-.85,4.91-2.05,9.47-2.85,14.04-3.64,1.13-.2,2.9.14,2.56-1.74-.31-1.75-1.94-1.02-3.08-.92-5.05.42-9.84,2.07-15.42,3.4Zm-8.05,78.8c1.41-1.74,3.48-2.26,5.41-2.68,9.05-1.98,17.4-5.59,25.57-9.89,5.83-3.06,12.21-4.76,18.73-5.94,3.46-.62,3.46,2.96,5.53,4.03.99.51.08,1.82-.69,2.34-6.73,4.58-12.51,11.06-21.12,12.11-10.89,1.32-21.85,1.03-32.8.59-.2,0-.39-.34-.63-.57Zm-120.26,121.25c-2.12-2.12-3.85-4.35-4.84-7.08-2.68-7.39-.91-12.31,5.72-16.1,1.3-.74,2.56-1.59,3.7-2.56,2.32-1.96,3.03-4.17.71-6.69-.5-.54-1.68-1.22-.83-1.95,2.71-2.36,3.2-6.42,6.54-8.28,1.24-.69,1.93-1.04,2.94.48,4.78,7.19,4.32,17.36-1.26,24.02-1.77,2.11-4.11,4.37-3.56,7.13,1.06,5.34-2.11,8.38-5.17,11.96-2.04-5.53-2.08-10.9-.78-16.32.24-1.02.98-2.31-.56-2.76-1.79-.52-1.86,1.09-2.17,2.24-1.39,5.25-1.04,10.53-.44,15.92Zm150.27-163.57c2.2,1.05,5.57,1.72,7.24,3.77,1.17,1.43-2.44,2.63-3.59,4.22-.32.43-.91.67-1.21,1.11-4.68,6.8-11.02,10.5-19.11,12.69-6.72,1.82-13.56,4.34-19.48,8.5-1.15.81-2.25.95-3.2-.35-1.25-1.71.46-2.15,1.3-2.77,4.57-3.34,8.48-7.32,12.05-11.7,6.42-7.87,16.3-10.2,24.58-15.09.23-.13.53-.15,1.4-.38ZM169.87,43.34c-.32.59-.61,1.2-.96,1.78-9.41,15.58-12.8,33.02-15.29,50.66-.9,6.41-.45,6.48-6.79,7.34-4.65.63-5.34.06-4.43-4.67,1.71-8.86,3.58-17.69,6.91-26.12,4.47-11.32,11.28-21.04,20.56-28.98Zm-76.14,196.08c-5.66-3.95-8.17-11.65-6.19-18.15,1.07-3.51.8-6.6-.65-9.91-2.63-6.04-4.05-12.48-5.35-18.92-.18-.91-.65-2.01.35-2.62.94-.57,1.9.19,2.63.72,6.11,4.5,11.54,9.66,15.14,16.46.77,1.46,1.45,3.15.98,4.74-1.47,4.97-1.02,10.02-1.11,15.07-.07,4.08-2.27,7.71-2.61,11.8-2.58-4.67-2.69-9.51-2.3-14.44.26-3.28.33-6.58-1.11-9.67-.35-.75-.92-1.47-1.9-1.15-.96.32-1.08,1.14-.78,2.01,2.64,7.65-.87,15.82,2.9,24.05Zm169.52-52.19c-.84-.56-1.25-.72-1.49-1.01-8.53-10.55-18.65-19.14-30.71-25.48-6.58-3.46-10.56-9.02-11.64-16.54,18.82.6,36.48,21.33,43.84,43.02Zm-57.39,163.26c-4.36-7.92-5.19-16.09-.82-24.13,3.59-6.6,7.85-12.86,8.57-20.64.06-.65.43-1.3.76-1.89.58-1.07,1.12-2.66,2.41-2.51,1.56.18,1.23,1.99,1.27,3.09.28,8.05-.03,16.11.65,24.16.11,1.29-.33,2.76-.93,3.94-2.29,4.5-3.24,9.25-3.21,14.27.01,2.37-.53,4.65-2.36,6.36-.78.73-1.7,1.8-2.77,1.42-1.33-.47-.64-1.92-.57-2.88.47-6.28,1.04-12.55,2.8-18.63.22-.77.71-1.65-.28-2.15-1.15-.59-1.87.28-2.25,1.15-.59,1.37-1.16,2.81-1.38,4.28-.71,4.71-1.26,9.45-1.87,14.18Zm-85.55-123.87c-.26-1.15-.1-2.07,1.01-2.82,7.54-5.1,9.66-4.39,12.4,4.26.41,1.31.76,2.63,1.12,3.96,3.15,11.65,6.71,23.14,11.92,34.07.47.99,2.18,2.28.18,3.46-2.01,1.18-2.92-.24-3.87-1.7-6.74-10.32-13.37-20.72-18.98-31.71-1.55-3.04-3.1-6.11-3.78-9.52Zm-38.92-150.3c6.66,4.53,12.89,9.16,18.36,14.8,6.44,6.63,6.74,14.34,5.09,23.38-2.17-3.34-3.89-6.1-5.75-8.77-.76-1.1-1.34-3.45-3.18-2.06-1.63,1.23.15,2.68.93,3.86,1.69,2.58,3.68,4.97,5.06,8.55-8.12-3.23-12.31-9.01-14.54-16.34-2.34-7.68-2.55-15.91-5.97-23.42Zm216.12,250.4c1.76-2.19,3.74-2.9,5.61-3.63,7.13-2.78,14.71-2.87,22.19-3.39,2.69-.19,4.99,1.37,6.72,3.44,3.13,3.74,6.77,6.71,11.39,8.46,1.14.43,3.07.78,2.7,2.49-.29,1.33-2.03,1.13-3.22,1.27-7.48.93-14.76-.11-21.74-2.81-6.69-2.59-13.32-4.08-20.31-1.18-1.55.64-3.28.84-5.58.19,4.17-2.83,8.25-4.18,12.48-5.16.95-.22,2.57-.01,2.15-1.7-.36-1.45-1.76-1.05-2.77-.78-3.01.82-5.99,1.74-9.62,2.8Zm-131.47-103.85c-3.24,9.88-2.04,21.11-3.47,32.06-.53,4.08-1.4,8.08-3.17,11.83-.49,1.04-.78,2.6-2.46,2.19-1.45-.36-1.03-1.75-1.04-2.77-.03-2.18.11-4.37.08-6.56-.14-12.92,1.69-25.99-3.31-38.52-.79-1.98-.3-4.24,2.09-5.04,1.21-.4,2.71.2,4.02,0,5.08-.8,7.22.9,7.25,6.82Zm-37.6,77.58c-5.9,2.35-11.89,2.43-17.91,2.14-12.02-.57-24.07-1.84-35.95,1.4-1.28.35-2.69,1.45-3.86.37-1.41-1.3.04-2.78.29-4.19.24-1.34.51-2.71.46-4.05-.13-3.08,1.49-4.44,4.28-5.02,1.93-.4,3.81-.4,5.7,0,11.37,2.45,22.72,4.99,34.1,7.35,4.25.88,8.59,1.34,12.89,2Zm-75.2-54.65c-6.18,1.59-12.4,2.15-18.59.87-3.73-.77-7.28-.72-10.94.12-2.49.57-5.03,1.65-7.63.63-3.55-1.39-6.93-3.21-10.95-3.06-1.56.06-1.92-.97-.67-2.06.92-.8,2-1.42,3.01-2.13,9.17-6.44,19.25-6.78,29.83-4.74,4.43.85,8.26,2.47,11.97,5.84-4.94-.24-9.25-1.89-13.74-1.49-1.32.12-3.57-.85-3.53,1.47.03,2.02,2.09,1.11,3.31,1.17,6.13.3,12.04,1.64,17.93,3.38Zm74.66-111.94c-4.81-13.97-2.94-21.04,7.23-28.42,2.07-1.5,4.04-3.67,6.08.16.61,1.15,2.19,1.07,3.41.83,2.69-.53,2.59.99,2.27,2.82-.31,1.77-.82,3.47-1.88,4.94-2.14,2.95-3.32,6.22-3.78,9.83-.66,5.2-3.61,9.06-7.66,12.15-.62.47-1.22,1.44-2.04,1.05-1.1-.52-.54-1.68-.45-2.57.45-4.53,1.57-8.87,3.71-12.93.49-.92,1.34-2.06-.13-2.8-1.33-.66-1.99.45-2.49,1.44-.55,1.09-1.14,2.2-1.48,3.37-.96,3.23-1.81,6.5-2.79,10.1Zm110.5,96.64c.47-3.22,1.59-5.54,3.08-7.7,6.45-9.33,15.28-15.46,25.86-19.21,1.21-.43,2.92-1.7,3.74-.42.89,1.38-1.1,2.2-1.99,3.11-5.67,5.9-12.03,11.38-14.36,19.6-1.65,5.82-6.22,8.34-10.78,11.07-.68.41-2.06.83-2.21.12-.55-2.67-2.92-4.45-3.35-6.57Zm-116.67,86.08c-9.95,7.82-17.65,17.72-26.11,26.91-4.28,4.66-4.46,4.51-9.53.49-4.19-3.32-4.36-4.72-1.03-8.79,1.65-2.02,3.6-3.69,5.66-5.29,9.16-7.14,20.34-9.53,31.01-13.31Zm72.66,51.35c-4.4-1.94-8.04-4.78-12.49-5.87-1.39-.34-3.37-1.5-4,.22-.73,2.01,1.68,1.94,2.94,2.46,3.42,1.44,7.08,2.41,10.39,5.62-13.25-.53-24.35-4.91-34.53-11.86-1.59-1.08-4.39-1.97-3.83-4.22.51-2.05,3.39-1.86,5.28-2.53.38-.13.8-.16,1.21-.21,14.98-2.17,25.24,6.29,35.11,15.63.05.05-.02.23-.09.75Zm13.04-119.56c1.5.16,3.01.22,4.49.49,2.85.51,3.98,1.78,1.68,4.35-4.52,5.06-9.23,9.72-16.53,10.55-4.13.47-7.85,2.29-11.28,4.68-3.6,2.5-7.28,4.87-10.89,7.37-1.29.89-2.29,1.19-3.52-.16-1.63-1.8.11-2.44,1.02-3.18,8.72-7.07,17.49-14.08,26.25-21.11,2.56-2.06,5.49-3.03,8.78-2.98Zm-106.64,1.31c1.63-1.93,3.17-4.21,5.16-5.98,1.49-1.32,3.16.1,4.45.99,7.98,5.49,14.45,12.52,20.2,20.23,1.87,2.51,3.31,5.34,5.06,7.94,1.41,2.1.11,3.32-1.3,4.46-1.93,1.56-2.22-.68-2.91-1.5-4.83-5.77-9.52-11.69-15.95-15.82-4.02-2.58-8.13-5.04-12.17-7.59-1-.63-2.29-1.02-2.54-2.74Zm-9.44,12.11c6.47-8.51,7.47-8.91,15.31-4.2,9,5.41,16.68,12.39,23.08,20.76.33.43.59.93.91,1.37,1.25,1.72.39,3.39-.74,4.42-1.34,1.23-2-.73-2.74-1.41-8.2-7.62-17.14-14.06-27.75-17.95-2.67-.98-5.34-1.98-8.07-2.98Zm210.96-47.62c3.71.87,5.97,2.39,8.3,3.68,9.85,5.48,19.22,11.58,25.91,20.98,2.77,3.89,4.33,8.2,4.63,12.95.12,1.95.02,3.13-2.88,2.79-3.3-.38-4.3-2.73-5.64-4.73-5.16-7.72-9.8-15.78-16.34-22.54-4.22-4.36-8.91-8.22-13.98-13.14Zm1.11-99.76c-1.42-1.41-1.77-2.62-1.77-3.84-.03-5.22-.96-10.33-1.64-15.47-1.11-8.49,2.09-15.52,7.25-21.91.41-.51.66-1.31,1.5-1.14.23.05.49.64.49.98.05,3.68,2.15,7.1,1.3,10.9-.86,3.81-.38,7.49.46,11.32,1.38,6.22.84,12.33-3.5,18.22,0-3.91.03-7.13-.02-10.34-.02-1.17.23-2.88-1.47-2.86-1.67.02-1.47,1.71-1.38,2.88.28,3.67.05,7.26-1.23,11.27Zm19.76,106.67c4.16.53,8.32,1.01,12.47,1.59,10,1.4,15.87,8.39,21.34,15.87.94,1.28,1,2.86.3,4.3-.83,1.71-2.4.99-3.64.76-6.86-1.23-11.76-6.19-16.99-10.02-4.75-3.47-8.74-8.16-13.48-12.51Zm-32.09-97.32c-1.08-4.06-1.99-7.74-3.07-11.37-.35-1.17-.58-3.15-2.51-2.41-1.68.64-.55,2.13-.23,3.2.91,3,2.08,5.94,2.36,9.1.06.65.12,1.64-.25,1.93-.77.62-1.49-.2-2.14-.66-2.57-1.84-2.52-5.03-3.86-7.44-3.66-6.55-4.02-12.67-1.45-19.92,1.5-4.24,1.69-9.34,1.94-15.25,2.1,4.64,4.89,7.81,4.82,11.93-.1,6.08,1.63,11.55,4.43,16.84,1.22,2.29,1.97,4.81,2.31,7.41.31,2.39.12,4.65-2.35,6.62Zm-215.31,104.38c-.63-1.93-1.3-3.85-1.89-5.79-1.6-5.2-4.75-9.5-7.93-13.79-.57-.77-1.32-1.62-2.37-.87-1.03.74-.54,1.69.03,2.52.62.9,1.28,1.77,1.92,2.66,3.38,4.67,6.04,9.67,7.04,16.12-5.09-3.46-8.33-7.6-10.16-12.88-1.17-3.35-1.72-7.12-3.63-9.98-4.54-6.78-4.16-14.85-7.56-23.04,5.8,3.69,8.76,8.13,10.95,13.14,1.6,3.67,3.31,7.3,6.31,9.98,6.6,5.91,7.4,13.81,7.31,21.92Zm169.6,156.64c2.2-3.11,5.13-5.41,8.67-5.77,8.63-.86,17.6-3.97,25.51,2.64.5.42,1.26.52,1.87.82,1.87.92,5.21,1.19,4.88,3.37-.3,1.96-3.59,1.86-5.75,2.11-6.84.78-13.93-.66-20.54,2.35-.78.36-2.11.38-2.8-.06-3.24-2.07-6.62-2.93-10.49-1.81,4.24-2.36,8.67-3.41,13.35-3.52,1.27-.03,3.29.45,3.27-1.44-.03-2.26-2.18-1.46-3.53-1.45-4.95.03-9.62,1.53-14.42,2.76Zm-73.48-119.24c.36-1.2.4-1.59.58-1.89,8.09-13.08,14.22-26.8,14.03-42.61,0-.52.2-1.04.31-1.56,2.4.79,4.95-.77,7.14.13,1.59.66,1.36,2.84,1.19,4.47-.98,9.1-3.63,17.72-8.44,25.48-3.71,6-8.71,10.96-14.81,15.97Zm15.46,26.29c1.96,0,4.64-.16,5.34,1.9.84,2.46-2.08,3.13-3.69,4.09-2.59,1.55-5.09,3-6.96,5.56-3.85,5.27-6.29,5.85-12.3,3.23-2.37-1.03-4.58-2.44-6.79-3.79-.72-.44-2.14-1.24-1.19-2.14,2.13-2.02,3.29-5.41,6.39-6.01,6.31-1.21,12.71-1.92,19.19-2.85Zm-13.48-.88c-1.41-.46-3.89.7-3.58-.97.44-2.33.99-5.28,3.62-6.56,7.25-3.55,14.56-7,21.85-10.46,1.88-.89,3.87-1.44,5.96-1.33,1.29.07,3.13-.56,3.65,1,.52,1.55-1.33,2.15-2.28,3.05-2.47,2.34-6.43,3.18-7.82,6.46-2,4.74-5.74,6.25-10.28,6.96-3.79.59-7.56,1.27-11.14,1.87Zm-48.36,45.2c.09-.63.16-1.03.21-1.44,1.28-10.68,10.08-16.16,16.27-23.43.37-.44,1.28-.4,1.93-.62,1.91-.66,2.91-.22,2.61,2.02-.59,4.47-1.14,8.95-1.7,13.43-.37,3-1.98,4.72-5.06,4.92-2.62.17-4.56,1.74-6.52,3.23-1.52,1.16-2.92,2.51-4.53,3.52-1.99,1.24-3.05.38-3.2-1.63Zm57.79,7.29c-2.05.99-3.5.55-4.95.35-5.23-.7-9.92-3.03-14.8-4.79-5.27-1.91-10.68-3.43-16.01-5.17-.86-.28-2.14-.42-2.03-1.64.06-.66,1.04-1.85,1.38-1.77,4.13.89,7.22-2.1,10.85-2.76,9.94-1.8,17.24,2.89,23.96,10.97-4.25-1.78-7.56-3.31-10.98-4.52-1.47-.52-3.74-2.48-4.62-.26-.94,2.38,2.07,2.28,3.51,2.84,4.59,1.77,9.11,3.63,13.67,6.76Zm51.26,71.7c-3.99.1-7.86-.48-11.69-1.6-2.93-.86-3.08-2.17-1-4.13,5.54-5.21,12.2-7.6,19.71-7.61,3.14,0,5.66,1.33,6.2,4.75.57,3.56-.97,6.13-4.36,7.39-2.84,1.06-5.84,1.29-8.86,1.19Zm105.04-228.15c-2.18,1.15-4.29,2.09-6.22,3.31-7.78,4.91-17.22,5.21-25.35,9.2-2.64,1.3-2.16-2-3.13-3.14-.96-1.13-1.68-2.35.34-3.64,4.78-3.05,10.39-4.27,15.25-6.9,6.67-3.61,12.62-3.85,19.12,1.16Zm-218.88-29.41c-4.64-.69-8.14-2.05-11.86-1.89-1.03.04-2.46-.27-2.47,1.35,0,1.26,1.23,1.27,2.16,1.39,4.22.54,8.39,1.31,12.41,2.75.82.29,2.21.19,2.02,1.52-.15,1.01-1.26,1.44-2.22,1.58-.92.13-1.93.15-2.81-.1-3.05-.84-5.87-.34-8.83.67-4.23,1.45-8.7,1.54-12.83-.26-4.43-1.93-4.42-2.73-1.05-6.08,1.26-1.25,2.66-2.44,3.64-3.9,3.3-4.9,7.9-4.62,12.78-3.5,3.51.81,5.93,3.19,9.07,6.45Zm41.5-112.67c-12.74,15.13-19.43,32.89-22.75,52.64-1.25-1.42-1.88-2.82-2.85-3.11-4.22-1.27-3.59-4.28-2.77-7.23,4.74-17.21,15.64-30.36,28.37-42.29Zm-22.43,227.67c-.89-.04-.91-.04-2.29-2.34-6.37-10.55-14.21-19.77-24.15-27.15-.76-.57-1.5-1.21-2.09-1.95-2.62-3.27-1.96-5.93,2.77-9.3,2.96-2.11,4.24,1,5.31,2.69,3.45,5.43,6.48,11.12,9.82,16.62,3.69,6.09,7.54,12.08,11.3,18.13.47.76,1.43,1.5.53,2.52-.34.39-.89.59-1.19.78Zm8.33,52.36c.44-5.02.86-10.04,1.34-15.05.1-1.02,7.78-6.27,8.7-5.94.46.17.87.66,1.14,1.1,2.14,3.5,4.23,7.03,4.86,11.17.45,2.98-.3,5.81-3.25,6.76-3.28,1.06-6.25,2.57-9.25,4.14-2.15,1.12-3.74.66-3.53-2.18Zm13.84-284.41c-2.26,2.16-4.62,4.22-6.77,6.49-6.8,7.18-12.7,15.05-17.71,23.57-1.74,2.96-4.76,3.47-7.05,2.61-2.91-1.1-.97-3.99-.41-6.08.27-1.03.91-1.99,1.5-2.91,3.96-6.19,9.22-11.16,15-15.6,4.64-3.57,9.45-6.89,15.45-8.07Zm-26.92,270.49c1.76.22,2.34.76,1.37,1.89-1.25,1.45-2.41,3.05-3.9,4.2-9.56,7.36-17.52,16.08-23.37,26.69-.71,1.28-1.82,2.42-2.96,3.37-2.45,2.05-4.34.17-6.14-1.23-2.4-1.87.19-2.81.98-3.84,8.89-11.66,19.71-21.25,31.73-29.56.88-.61,1.56-1.59,2.3-1.53Zm63.48,103.01c-4.08-.17-7.64-.42-10.99-1.77-2.78-1.12-5.4-2.66-4.81-6.23.58-3.53,3.35-4.83,6.56-5.16,4.54-.46,8.74.59,12.3,3.53,2.78,2.29,6,4.19,7.63,7.64-3.61,1.39-7.39,1.81-10.7,1.99Zm73.37-267.8c-2.87-6.14-6.15-11.29-9.92-16.11-.54-.69-.8-1.46-.58-2.3,1.06-4.12,2.27-8.18,4.64-11.78.93-1.41,2.12-1.71,2.48.15,1.16,5.85,4.85,10.35,7.69,15.32.74,1.29,1.55,2.64.76,4.24-1.59,3.27-3.17,6.54-5.08,10.48Zm.19,25.8c-.57-1.97-.95-3.2-1.28-4.45-2.19-8.26-5.4-16.09-9.97-23.33-2.71-4.3-5.74-8.37-9.32-11.98-2.4-2.41-1.03-5.26-.03-7.13.62-1.16,2.79,1.28,4.16,2.29.22.16.38.4.57.59,11.64,12.03,17.49,26.23,15.88,44.01Zm-87.08,86.18c5.73-8.01,9.85-16.42,11.66-25.83.79-4.12,3.48-4.33,6.59-4.35,3.34-.02,3.36,2.72,3.79,4.9.72,3.63-1.17,6.3-3.64,8.65-3.56,3.38-7.1,6.79-10.74,10.09-2.48,2.26-5.1,4.37-7.66,6.55Zm-59.18,38.98c-.72-.11-1.52-.26-2.34-.35-13.46-1.62-26.43-5.63-39.66-8.34-1.09-.22-3.24.21-3.02-1.19.27-1.73,1.72-3.32,2.8-4.87.83-1.19,1.73-.15,2.49.24,6.02,3.05,12.48,4.79,18.98,6.36,6.9,1.67,13.85,3.11,20.78,4.64,1.24.27,2.5.54,2.46,2.19-.05,1.75-1.38,1.28-2.5,1.32Zm67.6,48.58c-2.53-.89-4.15-2.54-5.68-4.57-5.47-7.29-11.6-13.87-20.92-16.29-.96-.25-2.55-.28-1.34-1.97,2.52-3.53,1.48-7.3.52-12.09,11.06,11,20.21,22.19,27.42,34.93Zm94.82-168c2.01-8.98,2.87-18.02,2.74-27.19-.09-6.03,1.01-6.97,7.02-6.51,3.39.26,4.93,2.41,3.29,5.47-4.91,9.14-8.64,18.8-13.05,28.23Zm-108.28-90.84c1.37,6.18,1.98,12.28,3.59,18.17.7,2.56.27,4.9-1.55,6.39-2.16,1.76-4.77-.08-6.9-.73-2.25-.69-2.13-3.57-1.55-5.43,1.94-6.2,4.24-12.28,6.41-18.4Zm60.54,106.36c-5.25,0-10.5.17-15.74-.04-7.4-.3-7.25-.42-7.23-7.44,0-2.43,1.01-2.42,2.71-2.03,7.38,1.68,13.68,5.76,20.26,9.52Zm-134.32-46.31c4.81-3.52,9.47-.77,13.97.51,7.91,2.25,10.52,9.53,14.36,15.57-4.18-1.17-7.5-3.17-10.35-6.37-4.69-5.27-10.12-9.67-17.98-9.71Zm119.8,88.94c0-4.77,0-9.54,0-14.32q0-8.74,8.74-7.97c.14.01.27,0,.41.01,1.99.02,1.96.94,1.06,2.31-4.12,6.27-7.07,13.12-10.22,19.96Zm-32.42,103.8c-7.09-10.86-14.72-20.08-23.54-29.2,3.56,0,6.4.97,9.15-.25.95-.42,1.6-.04,1.57,1.09-.14,7.02,4.3,11.87,7.99,17.13,2.16,3.08,4.91,5.95,4.83,11.24Zm71.75-21.34c-11.9-5.54-18.85-15.97-26.17-26.04,10.62,6.77,18.23,16.57,26.17,26.04Zm-40.84-46.96c4.96,6.47,5.19,7.44,3.86,14.11-.51,2.55-.83,5.14-1.44,7.67-.27,1.12.38,3.41-1.63,3-1.53-.31-3.48-1.69-3.08-3.81,1.29-6.8,1.37-13.75,2.29-20.97Zm150.94,2.29c-5.7,8.65-9.37,19.24-21.14,23.23,5.07-10.22,15.62-14.41,21.14-23.23Zm-153.97-9.32c-.07,7.93-.3,15.81-1.61,23.61-.16.93.57,2.97-1.42,2.67-1.25-.18-2.58-1.3-2.35-2.94,1.08-7.93,2.66-15.76,5.38-23.34Zm-17.38,92.63c-6.58-8.26-9.98-23.63-6.94-31.45,3.02,10.88,1.33,21.97,6.94,31.45Zm101.4,10.69c.26-2.49,1.64-3.48,2.98-4.28,7.16-4.32,15.14-2.74,22.86-3.01.08,0,.17.41.33.8-8.61,2.77-18.31.52-26.17,6.49Zm-104.6-40.08c-1.4-2.73-2.25-5.1-.13-7.72,1.06-1.3.86-3.1.7-4.74-.14-1.35-.37-2.71.25-4.01.35-.72.58-1.74,1.49-1.76,1.02-.02.98,1.12,1.27,1.8,2.5,6.06-.23,11.07-3.58,16.42Zm23.16-168.26c6.55,5.37,14.63,8.04,20.47,14.11-5.91-2.72-11.62-5.83-17.56-8.41-2.67-1.16-3.63-2.54-2.91-5.7Zm-5.44,187.6c.43.04.86.09,1.29.13-1.05,9.16-2.1,18.33-3.15,27.49-.83-9.35.32-18.51,1.86-27.62Zm-48-148.08c5.09-1.85,5.87-8.49,11.9-10.91-2.72,6.09-5.94,10.02-11.9,10.91Zm105.19-99.17c-1.29-5.46-.1-10.48,2.66-15.2-1.23,5-.09,10.44-2.66,15.2Zm-64.87,275.66c-1.17-4.61-3.14-9.08-2.05-13.9,1.36,4.57,2.23,9.19,2.05,13.9Z"/>
    </g>
  </g>
</svg>